<svg width="755" height="280" viewBox="0 0 755 280" fill="none" xmlns="http://www.w3.org/2000/svg">
<path d="M0 278.548C0 278.548 29.2699 215.661 52.6955 202.816C67.6778 194.601 70.6128 207.174 106.383 181.713C142.154 156.252 138.562 126.63 160.532 126.63C182.502 126.63 210.848 133.576 216.527 147.152C225.907 169.579 246.875 185.667 270.294 185.667C293.714 185.667 317.483 196.757 324.116 196.757C344.504 196.757 367.807 174.204 377.22 149.432C385.982 126.373 398.4 104.111 414.624 104.111C422.897 104.111 426.739 107.218 431.887 111.834C447.679 125.995 453.117 156.8 484.324 152.37C515.532 147.939 520.944 109.159 539.562 96.3204C545.804 92.0161 553.868 89.2924 560.665 89.2924C577.449 89.2924 576.572 104.111 591.928 102.855C606.28 101.681 633.368 79.2996 646.513 70.7786C659.658 62.2575 668.138 26.4231 701.405 26.4231C727.903 26.4231 752.514 0.51709 755 0.51709" stroke="#FF6C40" stroke-width="4" stroke-linecap="round"/>
</svg>
