<svg width="16" height="16" viewBox="0 0 16 16" fill="none" xmlns="http://www.w3.org/2000/svg">
<path fill-rule="evenodd" clip-rule="evenodd" d="M12.425 11.25L15.2583 14.075C15.4161 14.2315 15.5048 14.4445 15.5048 14.6667C15.5048 14.8889 15.4161 15.1019 15.2583 15.2583C15.1019 15.4161 14.8889 15.5048 14.6667 15.5048C14.4445 15.5048 14.2315 15.4161 14.075 15.2583L11.25 12.425C10.0854 13.3392 8.64721 13.8352 7.16667 13.8333C3.48477 13.8333 0.5 10.8486 0.5 7.16667C0.5 3.48477 3.48477 0.5 7.16667 0.5C10.8486 0.5 13.8333 3.48477 13.8333 7.16667C13.8352 8.64721 13.3392 10.0854 12.425 11.25ZM7.16667 2.16667C4.40524 2.16667 2.16667 4.40524 2.16667 7.16667C2.16667 9.92809 4.40524 12.1667 7.16667 12.1667C9.92809 12.1667 12.1667 9.92809 12.1667 7.16667C12.1667 4.40524 9.92809 2.16667 7.16667 2.16667Z" fill="#9D9D9D"/>
</svg>
